<mxfile host="app.diagrams.net" modified="2022-05-30T14:44:10.692Z" agent="5.0 (Windows NT 10.0; Win64; x64) AppleWebKit/537.36 (KHTML, like Gecko) Chrome/102.0.5005.61 Safari/537.36" etag="v094x-1gYjjLJJdhN0gM" version="18.1.3" type="github" pages="4">
  <diagram id="bARDX519lpYNtVwNuSN_" name="Aufnahme">
    <mxGraphModel dx="1422" dy="766" grid="1" gridSize="10" guides="1" tooltips="1" connect="1" arrows="1" fold="1" page="1" pageScale="1" pageWidth="827" pageHeight="1169" math="0" shadow="0">
      <root>
        <mxCell id="0" />
        <mxCell id="1" parent="0" />
        <mxCell id="b0Co7ium0--Q_egbyEHV-4" style="edgeStyle=orthogonalEdgeStyle;rounded=0;orthogonalLoop=1;jettySize=auto;html=1;entryX=0.5;entryY=0;entryDx=0;entryDy=0;" parent="1" target="b0Co7ium0--Q_egbyEHV-3" edge="1">
          <mxGeometry relative="1" as="geometry">
            <mxPoint x="420" y="100" as="sourcePoint" />
          </mxGeometry>
        </mxCell>
        <mxCell id="b0Co7ium0--Q_egbyEHV-6" style="edgeStyle=orthogonalEdgeStyle;rounded=0;orthogonalLoop=1;jettySize=auto;html=1;entryX=0.5;entryY=0;entryDx=0;entryDy=0;entryPerimeter=0;" parent="1" source="b0Co7ium0--Q_egbyEHV-3" target="b0Co7ium0--Q_egbyEHV-5" edge="1">
          <mxGeometry relative="1" as="geometry" />
        </mxCell>
        <mxCell id="b0Co7ium0--Q_egbyEHV-3" value="Aufnahme" style="rounded=0;whiteSpace=wrap;html=1;fillColor=none;" parent="1" vertex="1">
          <mxGeometry x="360" y="120" width="120" height="40" as="geometry" />
        </mxCell>
        <mxCell id="b0Co7ium0--Q_egbyEHV-5" value="rec.wav" style="shape=note;whiteSpace=wrap;html=1;backgroundOutline=1;darkOpacity=0.05;fillColor=none;size=15;" parent="1" vertex="1">
          <mxGeometry x="396" y="200" width="48" height="60" as="geometry" />
        </mxCell>
        <mxCell id="b0Co7ium0--Q_egbyEHV-7" value="6s" style="curved=1;endArrow=classic;html=1;rounded=0;exitX=1;exitY=0.75;exitDx=0;exitDy=0;entryX=1;entryY=0.25;entryDx=0;entryDy=0;labelPosition=left;verticalLabelPosition=middle;align=right;verticalAlign=middle;" parent="1" source="b0Co7ium0--Q_egbyEHV-3" target="b0Co7ium0--Q_egbyEHV-3" edge="1">
          <mxGeometry x="0.1538" y="17" width="50" height="50" relative="1" as="geometry">
            <mxPoint x="500" y="170" as="sourcePoint" />
            <mxPoint x="550" y="120" as="targetPoint" />
            <Array as="points">
              <mxPoint x="510" y="170" />
              <mxPoint x="530" y="140" />
              <mxPoint x="510" y="110" />
            </Array>
            <mxPoint as="offset" />
          </mxGeometry>
        </mxCell>
        <mxCell id="gfYS3WAT8t4bStKWkL5o-2" value="Mikrofon" style="ellipse;whiteSpace=wrap;html=1;aspect=fixed;shadow=0;sketch=0;fontSize=12;strokeColor=default;strokeWidth=1;fillColor=none;gradientColor=none;labelPosition=center;verticalLabelPosition=top;align=center;verticalAlign=bottom;" parent="1" vertex="1">
          <mxGeometry x="415" y="70" width="10" height="10" as="geometry" />
        </mxCell>
        <mxCell id="gfYS3WAT8t4bStKWkL5o-3" value="" style="rounded=1;whiteSpace=wrap;html=1;shadow=0;sketch=0;fontSize=12;strokeColor=default;strokeWidth=1;fillColor=none;gradientColor=none;" parent="1" vertex="1">
          <mxGeometry x="418" y="80" width="4" height="10" as="geometry" />
        </mxCell>
      </root>
    </mxGraphModel>
  </diagram>
  <diagram id="ig6ye1CEXL4cXCdWVsDu" name="Analyse">
    <mxGraphModel dx="677" dy="365" grid="1" gridSize="10" guides="1" tooltips="1" connect="1" arrows="1" fold="1" page="1" pageScale="1" pageWidth="827" pageHeight="1169" math="0" shadow="0">
      <root>
        <mxCell id="0" />
        <mxCell id="1" parent="0" />
        <mxCell id="jsb996s4NbxFvLmRE1MH-1" value="" style="rounded=0;whiteSpace=wrap;html=1;strokeWidth=1;fillColor=none;" parent="1" vertex="1">
          <mxGeometry x="260" y="160" width="490" height="100" as="geometry" />
        </mxCell>
        <mxCell id="jsb996s4NbxFvLmRE1MH-2" value="Tempo" style="html=1;verticalAlign=middle;labelBackgroundColor=none;endArrow=oval;endFill=0;endSize=8;rounded=0;labelPosition=left;verticalLabelPosition=middle;align=right;horizontal=0;" parent="1" edge="1">
          <mxGeometry x="1" y="10" width="160" relative="1" as="geometry">
            <mxPoint x="329.61" y="260" as="sourcePoint" />
            <mxPoint x="329.61" y="290" as="targetPoint" />
            <mxPoint x="-10" y="10" as="offset" />
          </mxGeometry>
        </mxCell>
        <mxCell id="DFTSDrlV5FmtQoffszC6-1" value="rec.wav" style="shape=note;whiteSpace=wrap;html=1;backgroundOutline=1;darkOpacity=0.05;fillColor=none;size=15;" parent="1" vertex="1">
          <mxGeometry x="480" y="50" width="50" height="70" as="geometry" />
        </mxCell>
        <mxCell id="7AgodbxEZoKmrq7ZFADK-1" value="RhythmExtractor2013" style="rounded=0;whiteSpace=wrap;html=1;strokeWidth=1;fillColor=none;fontSize=12;" parent="1" vertex="1">
          <mxGeometry x="270" y="190" width="120" height="40" as="geometry" />
        </mxCell>
        <mxCell id="7AgodbxEZoKmrq7ZFADK-2" value="Loudness" style="rounded=0;whiteSpace=wrap;html=1;strokeWidth=1;fillColor=none;" parent="1" vertex="1">
          <mxGeometry x="400" y="190" width="81" height="40" as="geometry" />
        </mxCell>
        <mxCell id="7AgodbxEZoKmrq7ZFADK-3" value="KeyExtractor" style="rounded=0;whiteSpace=wrap;html=1;strokeWidth=1;fillColor=none;" parent="1" vertex="1">
          <mxGeometry x="490" y="190" width="80" height="40" as="geometry" />
        </mxCell>
        <mxCell id="7AgodbxEZoKmrq7ZFADK-4" value="Lautstärke" style="html=1;verticalAlign=middle;labelBackgroundColor=none;endArrow=oval;endFill=0;endSize=8;rounded=0;labelPosition=left;verticalLabelPosition=middle;align=right;horizontal=0;" parent="1" edge="1">
          <mxGeometry x="1" y="10" width="160" relative="1" as="geometry">
            <mxPoint x="440.21000000000004" y="260" as="sourcePoint" />
            <mxPoint x="440.21000000000004" y="290" as="targetPoint" />
            <mxPoint x="-9" y="10" as="offset" />
          </mxGeometry>
        </mxCell>
        <mxCell id="7AgodbxEZoKmrq7ZFADK-5" value="Tonhöhe" style="verticalAlign=middle;labelBackgroundColor=none;endArrow=oval;endFill=0;endSize=8;rounded=0;labelPosition=left;verticalLabelPosition=middle;align=right;html=1;labelBorderColor=none;horizontal=0;" parent="1" edge="1">
          <mxGeometry x="1" y="10" width="160" relative="1" as="geometry">
            <mxPoint x="510" y="260" as="sourcePoint" />
            <mxPoint x="510" y="290" as="targetPoint" />
            <mxPoint x="-10" y="10" as="offset" />
          </mxGeometry>
        </mxCell>
        <mxCell id="7AgodbxEZoKmrq7ZFADK-6" value="Tonalität" style="html=1;verticalAlign=middle;labelBackgroundColor=none;endArrow=oval;endFill=0;endSize=8;rounded=0;labelPosition=left;verticalLabelPosition=middle;align=right;horizontal=0;" parent="1" edge="1">
          <mxGeometry x="1" y="10" width="160" relative="1" as="geometry">
            <mxPoint x="550" y="260" as="sourcePoint" />
            <mxPoint x="550" y="290" as="targetPoint" />
            <mxPoint x="-10" y="10" as="offset" />
          </mxGeometry>
        </mxCell>
        <mxCell id="qZxVMNSj1ruBpmE8DDHG-1" value="Analyse-Container" style="text;html=1;align=center;verticalAlign=middle;resizable=0;points=[];autosize=1;strokeColor=none;fillColor=none;fontSize=12;" parent="1" vertex="1">
          <mxGeometry x="260" y="140" width="110" height="20" as="geometry" />
        </mxCell>
        <mxCell id="nbPu6m8CbY6jxN3W5d46-1" value="" style="endArrow=classic;html=1;rounded=0;" edge="1" parent="1">
          <mxGeometry width="50" height="50" relative="1" as="geometry">
            <mxPoint x="504.71" y="120" as="sourcePoint" />
            <mxPoint x="504.71" y="160" as="targetPoint" />
          </mxGeometry>
        </mxCell>
        <mxCell id="nbPu6m8CbY6jxN3W5d46-4" value="TensorflowPredictMusiCNN" style="rounded=0;whiteSpace=wrap;html=1;strokeWidth=1;fillColor=none;" vertex="1" parent="1">
          <mxGeometry x="580" y="190" width="150" height="40" as="geometry" />
        </mxCell>
        <mxCell id="nbPu6m8CbY6jxN3W5d46-5" value="Genre" style="html=1;verticalAlign=middle;labelBackgroundColor=none;endArrow=oval;endFill=0;endSize=8;rounded=0;labelPosition=left;verticalLabelPosition=middle;align=right;horizontal=0;" edge="1" parent="1">
          <mxGeometry x="1" y="10" width="160" relative="1" as="geometry">
            <mxPoint x="629.9999999999998" y="260" as="sourcePoint" />
            <mxPoint x="629.9999999999998" y="290" as="targetPoint" />
            <mxPoint x="-10" y="10" as="offset" />
          </mxGeometry>
        </mxCell>
        <mxCell id="nbPu6m8CbY6jxN3W5d46-6" value="Stimmung" style="html=1;verticalAlign=middle;labelBackgroundColor=none;endArrow=oval;endFill=0;endSize=8;rounded=0;labelPosition=left;verticalLabelPosition=middle;align=right;horizontal=0;" edge="1" parent="1">
          <mxGeometry x="1" y="10" width="160" relative="1" as="geometry">
            <mxPoint x="679.8099999999997" y="260" as="sourcePoint" />
            <mxPoint x="679.8099999999997" y="290" as="targetPoint" />
            <mxPoint x="-10" y="10" as="offset" />
          </mxGeometry>
        </mxCell>
        <mxCell id="nbPu6m8CbY6jxN3W5d46-8" value="" style="endArrow=classic;html=1;rounded=0;exitX=0.51;exitY=0.002;exitDx=0;exitDy=0;exitPerimeter=0;entryX=0.5;entryY=0;entryDx=0;entryDy=0;" edge="1" parent="1" source="jsb996s4NbxFvLmRE1MH-1" target="7AgodbxEZoKmrq7ZFADK-1">
          <mxGeometry width="50" height="50" relative="1" as="geometry">
            <mxPoint x="620" y="110" as="sourcePoint" />
            <mxPoint x="670" y="60" as="targetPoint" />
            <Array as="points">
              <mxPoint x="330" y="170" />
            </Array>
          </mxGeometry>
        </mxCell>
        <mxCell id="nbPu6m8CbY6jxN3W5d46-9" value="" style="endArrow=classic;html=1;rounded=0;exitX=0.51;exitY=0.001;exitDx=0;exitDy=0;exitPerimeter=0;entryX=0.5;entryY=0;entryDx=0;entryDy=0;" edge="1" parent="1" source="jsb996s4NbxFvLmRE1MH-1" target="7AgodbxEZoKmrq7ZFADK-2">
          <mxGeometry width="50" height="50" relative="1" as="geometry">
            <mxPoint x="574.8" y="130.20000000000005" as="sourcePoint" />
            <mxPoint x="399.9999999999999" y="160" as="targetPoint" />
            <Array as="points">
              <mxPoint x="441" y="170" />
            </Array>
          </mxGeometry>
        </mxCell>
        <mxCell id="nbPu6m8CbY6jxN3W5d46-10" value="" style="endArrow=classic;html=1;rounded=0;exitX=0.509;exitY=0.001;exitDx=0;exitDy=0;exitPerimeter=0;entryX=0.5;entryY=0;entryDx=0;entryDy=0;" edge="1" parent="1" source="jsb996s4NbxFvLmRE1MH-1" target="7AgodbxEZoKmrq7ZFADK-3">
          <mxGeometry width="50" height="50" relative="1" as="geometry">
            <mxPoint x="524.8" y="180.20000000000005" as="sourcePoint" />
            <mxPoint x="349.9999999999999" y="210" as="targetPoint" />
            <Array as="points">
              <mxPoint x="530" y="170" />
            </Array>
          </mxGeometry>
        </mxCell>
        <mxCell id="nbPu6m8CbY6jxN3W5d46-11" value="" style="endArrow=classic;html=1;rounded=0;entryX=0.5;entryY=0;entryDx=0;entryDy=0;exitX=0.51;exitY=0.002;exitDx=0;exitDy=0;exitPerimeter=0;" edge="1" parent="1" source="jsb996s4NbxFvLmRE1MH-1" target="nbPu6m8CbY6jxN3W5d46-4">
          <mxGeometry width="50" height="50" relative="1" as="geometry">
            <mxPoint x="510" y="160" as="sourcePoint" />
            <mxPoint x="359.9999999999999" y="220" as="targetPoint" />
            <Array as="points">
              <mxPoint x="655" y="170" />
            </Array>
          </mxGeometry>
        </mxCell>
        <mxCell id="nbPu6m8CbY6jxN3W5d46-12" value="" style="endArrow=classic;html=1;rounded=0;" edge="1" parent="1">
          <mxGeometry width="50" height="50" relative="1" as="geometry">
            <mxPoint x="330" y="230" as="sourcePoint" />
            <mxPoint x="329.76" y="260" as="targetPoint" />
          </mxGeometry>
        </mxCell>
        <mxCell id="nbPu6m8CbY6jxN3W5d46-13" value="" style="endArrow=classic;html=1;rounded=0;" edge="1" parent="1">
          <mxGeometry width="50" height="50" relative="1" as="geometry">
            <mxPoint x="440" y="230" as="sourcePoint" />
            <mxPoint x="440.2599999999999" y="260" as="targetPoint" />
          </mxGeometry>
        </mxCell>
        <mxCell id="nbPu6m8CbY6jxN3W5d46-14" value="" style="endArrow=classic;html=1;rounded=0;" edge="1" parent="1">
          <mxGeometry width="50" height="50" relative="1" as="geometry">
            <mxPoint x="510" y="230" as="sourcePoint" />
            <mxPoint x="509.9999999999999" y="260" as="targetPoint" />
          </mxGeometry>
        </mxCell>
        <mxCell id="nbPu6m8CbY6jxN3W5d46-15" value="" style="endArrow=classic;html=1;rounded=0;" edge="1" parent="1">
          <mxGeometry width="50" height="50" relative="1" as="geometry">
            <mxPoint x="550" y="230" as="sourcePoint" />
            <mxPoint x="550" y="260" as="targetPoint" />
          </mxGeometry>
        </mxCell>
        <mxCell id="nbPu6m8CbY6jxN3W5d46-16" value="" style="endArrow=classic;html=1;rounded=0;" edge="1" parent="1">
          <mxGeometry width="50" height="50" relative="1" as="geometry">
            <mxPoint x="630" y="230" as="sourcePoint" />
            <mxPoint x="630" y="260" as="targetPoint" />
          </mxGeometry>
        </mxCell>
        <mxCell id="nbPu6m8CbY6jxN3W5d46-17" value="" style="endArrow=classic;html=1;rounded=0;" edge="1" parent="1">
          <mxGeometry width="50" height="50" relative="1" as="geometry">
            <mxPoint x="680" y="230" as="sourcePoint" />
            <mxPoint x="680" y="260" as="targetPoint" />
          </mxGeometry>
        </mxCell>
        <mxCell id="OpYL9JwlWzgxSmTTD2SX-1" value="msd-musicnn-1.pb" style="rounded=1;whiteSpace=wrap;html=1;dashed=1;fillColor=none;fontSize=10;" vertex="1" parent="1">
          <mxGeometry x="805" y="90" width="170" height="20" as="geometry" />
        </mxCell>
        <mxCell id="OpYL9JwlWzgxSmTTD2SX-2" value="Vortrainierte ML-Modelle" style="text;html=1;align=center;verticalAlign=middle;resizable=0;points=[];autosize=1;strokeColor=none;fillColor=none;fontSize=12;" vertex="1" parent="1">
          <mxGeometry x="815" y="60" width="150" height="20" as="geometry" />
        </mxCell>
        <mxCell id="OpYL9JwlWzgxSmTTD2SX-4" value="" style="endArrow=none;html=1;rounded=0;startSize=6;" edge="1" parent="1">
          <mxGeometry width="50" height="50" relative="1" as="geometry">
            <mxPoint x="985" y="110" as="sourcePoint" />
            <mxPoint x="985" y="90" as="targetPoint" />
          </mxGeometry>
        </mxCell>
        <mxCell id="OpYL9JwlWzgxSmTTD2SX-5" value="Genre" style="text;html=1;align=left;verticalAlign=middle;resizable=0;points=[];autosize=1;strokeColor=none;fillColor=none;" vertex="1" parent="1">
          <mxGeometry x="1000" y="90" width="50" height="20" as="geometry" />
        </mxCell>
        <mxCell id="OpYL9JwlWzgxSmTTD2SX-6" value="" style="endArrow=none;html=1;rounded=0;startSize=6;" edge="1" parent="1">
          <mxGeometry width="50" height="50" relative="1" as="geometry">
            <mxPoint x="985" y="100" as="sourcePoint" />
            <mxPoint x="1000" y="100" as="targetPoint" />
          </mxGeometry>
        </mxCell>
        <mxCell id="OpYL9JwlWzgxSmTTD2SX-7" value="dancability-musicnn-msd.pb" style="rounded=1;whiteSpace=wrap;html=1;dashed=1;fillColor=none;fontSize=10;" vertex="1" parent="1">
          <mxGeometry x="805" y="120" width="170" height="20" as="geometry" />
        </mxCell>
        <mxCell id="OpYL9JwlWzgxSmTTD2SX-8" value="mood_acoustic-musicnn-msd.pb" style="rounded=1;whiteSpace=wrap;html=1;dashed=1;fillColor=none;fontSize=10;" vertex="1" parent="1">
          <mxGeometry x="805" y="150" width="170" height="20" as="geometry" />
        </mxCell>
        <mxCell id="OpYL9JwlWzgxSmTTD2SX-9" value="mood_aggressive-musicnn-msd.pb" style="rounded=1;whiteSpace=wrap;html=1;dashed=1;fillColor=none;fontSize=10;" vertex="1" parent="1">
          <mxGeometry x="805" y="180" width="170" height="20" as="geometry" />
        </mxCell>
        <mxCell id="OpYL9JwlWzgxSmTTD2SX-10" value="mood_electronic-musicnn-msd.pb" style="rounded=1;whiteSpace=wrap;html=1;dashed=1;fillColor=none;fontSize=10;" vertex="1" parent="1">
          <mxGeometry x="805" y="210" width="170" height="20" as="geometry" />
        </mxCell>
        <mxCell id="OpYL9JwlWzgxSmTTD2SX-11" value="mood_happy-musicnn-msd.pb" style="rounded=1;whiteSpace=wrap;html=1;dashed=1;fillColor=none;fontSize=10;" vertex="1" parent="1">
          <mxGeometry x="805" y="240" width="170" height="20" as="geometry" />
        </mxCell>
        <mxCell id="OpYL9JwlWzgxSmTTD2SX-12" value="mood_party-musicnn-msd.pb" style="rounded=1;whiteSpace=wrap;html=1;dashed=1;fillColor=none;fontSize=10;" vertex="1" parent="1">
          <mxGeometry x="805" y="270" width="170" height="20" as="geometry" />
        </mxCell>
        <mxCell id="OpYL9JwlWzgxSmTTD2SX-13" value="mood_relaxed-musicnn-msd.pb" style="rounded=1;whiteSpace=wrap;html=1;dashed=1;fillColor=none;fontSize=10;" vertex="1" parent="1">
          <mxGeometry x="805" y="300" width="170" height="20" as="geometry" />
        </mxCell>
        <mxCell id="OpYL9JwlWzgxSmTTD2SX-14" value="mood_sad-musicnn-msd.pb" style="rounded=1;whiteSpace=wrap;html=1;dashed=1;fillColor=none;fontSize=10;" vertex="1" parent="1">
          <mxGeometry x="805" y="330" width="170" height="20" as="geometry" />
        </mxCell>
        <mxCell id="OpYL9JwlWzgxSmTTD2SX-16" value="" style="endArrow=none;html=1;rounded=0;startSize=6;" edge="1" parent="1">
          <mxGeometry width="50" height="50" relative="1" as="geometry">
            <mxPoint x="985" y="350.4" as="sourcePoint" />
            <mxPoint x="985" y="120" as="targetPoint" />
          </mxGeometry>
        </mxCell>
        <mxCell id="OpYL9JwlWzgxSmTTD2SX-17" value="Stimmung" style="text;html=1;align=left;verticalAlign=middle;resizable=0;points=[];autosize=1;strokeColor=none;fillColor=none;" vertex="1" parent="1">
          <mxGeometry x="1000" y="210" width="70" height="20" as="geometry" />
        </mxCell>
        <mxCell id="OpYL9JwlWzgxSmTTD2SX-19" value="" style="endArrow=none;html=1;rounded=0;startSize=6;" edge="1" parent="1">
          <mxGeometry width="50" height="50" relative="1" as="geometry">
            <mxPoint x="985" y="219.81" as="sourcePoint" />
            <mxPoint x="1000" y="220" as="targetPoint" />
          </mxGeometry>
        </mxCell>
        <mxCell id="OpYL9JwlWzgxSmTTD2SX-21" value="" style="endArrow=classic;html=1;rounded=0;fontSize=10;startSize=6;" edge="1" parent="1">
          <mxGeometry width="50" height="50" relative="1" as="geometry">
            <mxPoint x="760" y="210" as="sourcePoint" />
            <mxPoint x="730" y="209.6" as="targetPoint" />
          </mxGeometry>
        </mxCell>
        <mxCell id="OpYL9JwlWzgxSmTTD2SX-23" value="" style="endArrow=none;html=1;rounded=0;fontSize=10;startSize=6;entryX=0;entryY=0.5;entryDx=0;entryDy=0;" edge="1" parent="1" target="OpYL9JwlWzgxSmTTD2SX-1">
          <mxGeometry width="50" height="50" relative="1" as="geometry">
            <mxPoint x="760" y="210" as="sourcePoint" />
            <mxPoint x="800" y="90" as="targetPoint" />
            <Array as="points">
              <mxPoint x="770" y="100" />
            </Array>
          </mxGeometry>
        </mxCell>
        <mxCell id="OpYL9JwlWzgxSmTTD2SX-24" value="" style="endArrow=none;html=1;rounded=0;fontSize=10;startSize=6;entryX=0;entryY=0.5;entryDx=0;entryDy=0;" edge="1" parent="1" target="OpYL9JwlWzgxSmTTD2SX-7">
          <mxGeometry width="50" height="50" relative="1" as="geometry">
            <mxPoint x="760" y="210" as="sourcePoint" />
            <mxPoint x="815" y="110" as="targetPoint" />
            <Array as="points">
              <mxPoint x="780" y="130" />
            </Array>
          </mxGeometry>
        </mxCell>
        <mxCell id="OpYL9JwlWzgxSmTTD2SX-25" value="" style="endArrow=none;html=1;rounded=0;fontSize=10;startSize=6;entryX=0;entryY=0.5;entryDx=0;entryDy=0;" edge="1" parent="1" target="OpYL9JwlWzgxSmTTD2SX-8">
          <mxGeometry width="50" height="50" relative="1" as="geometry">
            <mxPoint x="760" y="210" as="sourcePoint" />
            <mxPoint x="825" y="120" as="targetPoint" />
            <Array as="points">
              <mxPoint x="790" y="160" />
            </Array>
          </mxGeometry>
        </mxCell>
        <mxCell id="OpYL9JwlWzgxSmTTD2SX-26" value="" style="endArrow=none;html=1;rounded=0;fontSize=10;startSize=6;entryX=0;entryY=0.5;entryDx=0;entryDy=0;" edge="1" parent="1" target="OpYL9JwlWzgxSmTTD2SX-9">
          <mxGeometry width="50" height="50" relative="1" as="geometry">
            <mxPoint x="760" y="210" as="sourcePoint" />
            <mxPoint x="835" y="130" as="targetPoint" />
            <Array as="points">
              <mxPoint x="790" y="190" />
            </Array>
          </mxGeometry>
        </mxCell>
        <mxCell id="OpYL9JwlWzgxSmTTD2SX-27" value="" style="endArrow=none;html=1;rounded=0;fontSize=10;startSize=6;entryX=0;entryY=0.5;entryDx=0;entryDy=0;" edge="1" parent="1" target="OpYL9JwlWzgxSmTTD2SX-10">
          <mxGeometry width="50" height="50" relative="1" as="geometry">
            <mxPoint x="760" y="210" as="sourcePoint" />
            <mxPoint x="845" y="140" as="targetPoint" />
            <Array as="points">
              <mxPoint x="790" y="220" />
            </Array>
          </mxGeometry>
        </mxCell>
        <mxCell id="OpYL9JwlWzgxSmTTD2SX-28" value="" style="endArrow=none;html=1;rounded=0;fontSize=10;startSize=6;entryX=0;entryY=0.5;entryDx=0;entryDy=0;" edge="1" parent="1" target="OpYL9JwlWzgxSmTTD2SX-11">
          <mxGeometry width="50" height="50" relative="1" as="geometry">
            <mxPoint x="760" y="210" as="sourcePoint" />
            <mxPoint x="855" y="150" as="targetPoint" />
            <Array as="points">
              <mxPoint x="790" y="250" />
            </Array>
          </mxGeometry>
        </mxCell>
        <mxCell id="OpYL9JwlWzgxSmTTD2SX-29" value="" style="endArrow=none;html=1;rounded=0;fontSize=10;startSize=6;exitX=0;exitY=0.5;exitDx=0;exitDy=0;" edge="1" parent="1" source="OpYL9JwlWzgxSmTTD2SX-12">
          <mxGeometry width="50" height="50" relative="1" as="geometry">
            <mxPoint x="820" y="270" as="sourcePoint" />
            <mxPoint x="760" y="210" as="targetPoint" />
            <Array as="points">
              <mxPoint x="790" y="280" />
            </Array>
          </mxGeometry>
        </mxCell>
        <mxCell id="OpYL9JwlWzgxSmTTD2SX-30" value="" style="endArrow=none;html=1;rounded=0;fontSize=10;startSize=6;exitX=0;exitY=0.5;exitDx=0;exitDy=0;" edge="1" parent="1" source="OpYL9JwlWzgxSmTTD2SX-13">
          <mxGeometry width="50" height="50" relative="1" as="geometry">
            <mxPoint x="815" y="290" as="sourcePoint" />
            <mxPoint x="760" y="210" as="targetPoint" />
            <Array as="points">
              <mxPoint x="780" y="310" />
            </Array>
          </mxGeometry>
        </mxCell>
        <mxCell id="OpYL9JwlWzgxSmTTD2SX-31" value="" style="endArrow=none;html=1;rounded=0;fontSize=10;startSize=6;exitX=0;exitY=0.5;exitDx=0;exitDy=0;" edge="1" parent="1" source="OpYL9JwlWzgxSmTTD2SX-14">
          <mxGeometry width="50" height="50" relative="1" as="geometry">
            <mxPoint x="825" y="300" as="sourcePoint" />
            <mxPoint x="760" y="210" as="targetPoint" />
            <Array as="points">
              <mxPoint x="770" y="340" />
            </Array>
          </mxGeometry>
        </mxCell>
      </root>
    </mxGraphModel>
  </diagram>
  <diagram id="JZgN6x6NQCmFPZAqGVXT" name="Cache">
    <mxGraphModel dx="474" dy="255" grid="1" gridSize="10" guides="1" tooltips="1" connect="1" arrows="1" fold="1" page="1" pageScale="1" pageWidth="827" pageHeight="1169" math="0" shadow="0">
      <root>
        <mxCell id="0" />
        <mxCell id="1" parent="0" />
        <mxCell id="ppudIwoGMJgjri9WrSa5-1" value="Redis&lt;br&gt;KV Store" style="strokeWidth=1;html=1;shape=mxgraph.flowchart.database;whiteSpace=wrap;fillColor=none;labelPosition=center;verticalLabelPosition=bottom;align=center;verticalAlign=top;" parent="1" vertex="1">
          <mxGeometry x="370" y="120" width="60" height="40" as="geometry" />
        </mxCell>
        <mxCell id="ppudIwoGMJgjri9WrSa5-2" value="Tempo" style="html=1;verticalAlign=middle;labelBackgroundColor=none;endArrow=oval;endFill=0;endSize=8;rounded=0;labelPosition=right;verticalLabelPosition=middle;align=left;" parent="1" edge="1">
          <mxGeometry x="1" y="10" width="160" relative="1" as="geometry">
            <mxPoint x="460" y="100" as="sourcePoint" />
            <mxPoint x="490" y="100" as="targetPoint" />
            <mxPoint x="10" y="10" as="offset" />
          </mxGeometry>
        </mxCell>
        <mxCell id="ppudIwoGMJgjri9WrSa5-3" value="" style="rounded=0;whiteSpace=wrap;html=1;fillColor=none;" parent="1" vertex="1">
          <mxGeometry x="340" y="90" width="120" height="120" as="geometry" />
        </mxCell>
        <mxCell id="ppudIwoGMJgjri9WrSa5-4" value="Lautstärke" style="html=1;verticalAlign=middle;labelBackgroundColor=none;endArrow=oval;endFill=0;endSize=8;rounded=0;labelPosition=right;verticalLabelPosition=middle;align=left;" parent="1" edge="1">
          <mxGeometry x="1" y="10" width="160" relative="1" as="geometry">
            <mxPoint x="460" y="120" as="sourcePoint" />
            <mxPoint x="490" y="120" as="targetPoint" />
            <mxPoint x="10" y="10" as="offset" />
          </mxGeometry>
        </mxCell>
        <mxCell id="ppudIwoGMJgjri9WrSa5-5" value="Tonhöhe" style="html=1;verticalAlign=middle;labelBackgroundColor=none;endArrow=oval;endFill=0;endSize=8;rounded=0;labelPosition=right;verticalLabelPosition=middle;align=left;" parent="1" edge="1">
          <mxGeometry x="1" y="10" width="160" relative="1" as="geometry">
            <mxPoint x="460" y="140" as="sourcePoint" />
            <mxPoint x="490" y="140" as="targetPoint" />
            <mxPoint x="10" y="10" as="offset" />
          </mxGeometry>
        </mxCell>
        <mxCell id="ppudIwoGMJgjri9WrSa5-6" value="Tonalität" style="html=1;verticalAlign=middle;labelBackgroundColor=none;endArrow=oval;endFill=0;endSize=8;rounded=0;labelPosition=right;verticalLabelPosition=middle;align=left;" parent="1" edge="1">
          <mxGeometry x="1" y="10" width="160" relative="1" as="geometry">
            <mxPoint x="460" y="160" as="sourcePoint" />
            <mxPoint x="490" y="160" as="targetPoint" />
            <mxPoint x="10" y="10" as="offset" />
          </mxGeometry>
        </mxCell>
        <mxCell id="ppudIwoGMJgjri9WrSa5-7" value="Tempo" style="html=1;verticalAlign=middle;labelBackgroundColor=none;startArrow=halfCircle;startFill=0;startSize=2;endArrow=none;rounded=0;labelPosition=left;verticalLabelPosition=middle;align=right;" parent="1" edge="1">
          <mxGeometry x="-1" y="-10" relative="1" as="geometry">
            <mxPoint x="310" y="100" as="sourcePoint" />
            <mxPoint x="340" y="100" as="targetPoint" />
            <mxPoint x="-10" y="-10" as="offset" />
          </mxGeometry>
        </mxCell>
        <mxCell id="ppudIwoGMJgjri9WrSa5-8" value="Lautstärke" style="html=1;verticalAlign=middle;labelBackgroundColor=none;startArrow=halfCircle;startFill=0;startSize=2;endArrow=none;rounded=0;labelPosition=left;verticalLabelPosition=middle;align=right;" parent="1" edge="1">
          <mxGeometry x="-1" y="-10" relative="1" as="geometry">
            <mxPoint x="310" y="120" as="sourcePoint" />
            <mxPoint x="340" y="120" as="targetPoint" />
            <mxPoint x="-10" y="-10" as="offset" />
          </mxGeometry>
        </mxCell>
        <mxCell id="ppudIwoGMJgjri9WrSa5-9" value="Tonhöhe" style="html=1;verticalAlign=middle;labelBackgroundColor=none;startArrow=halfCircle;startFill=0;startSize=2;endArrow=none;rounded=0;labelPosition=left;verticalLabelPosition=middle;align=right;" parent="1" edge="1">
          <mxGeometry x="-1" y="-10" relative="1" as="geometry">
            <mxPoint x="310" y="139.8" as="sourcePoint" />
            <mxPoint x="340" y="139.8" as="targetPoint" />
            <mxPoint x="-10" y="-10" as="offset" />
          </mxGeometry>
        </mxCell>
        <mxCell id="ppudIwoGMJgjri9WrSa5-10" value="Tonalität" style="html=1;verticalAlign=middle;labelBackgroundColor=none;startArrow=halfCircle;startFill=0;startSize=2;endArrow=none;rounded=0;labelPosition=left;verticalLabelPosition=middle;align=right;" parent="1" edge="1">
          <mxGeometry x="-1" y="-10" relative="1" as="geometry">
            <mxPoint x="310" y="160" as="sourcePoint" />
            <mxPoint x="340" y="160" as="targetPoint" />
            <mxPoint x="-10" y="-10" as="offset" />
          </mxGeometry>
        </mxCell>
        <mxCell id="D-crquRMJYATLzQV5hDr-1" value="Cache-Container" style="text;html=1;align=center;verticalAlign=middle;resizable=0;points=[];autosize=1;strokeColor=none;fillColor=none;fontSize=12;" parent="1" vertex="1">
          <mxGeometry x="345" y="70" width="110" height="20" as="geometry" />
        </mxCell>
        <mxCell id="hnTEgbGnBb2S3VTNwjmt-1" value="Genre" style="html=1;verticalAlign=middle;labelBackgroundColor=none;startArrow=halfCircle;startFill=0;startSize=2;endArrow=none;rounded=0;labelPosition=left;verticalLabelPosition=middle;align=right;" edge="1" parent="1">
          <mxGeometry x="-1" y="-10" relative="1" as="geometry">
            <mxPoint x="310.0000000000001" y="180" as="sourcePoint" />
            <mxPoint x="340.0000000000001" y="180" as="targetPoint" />
            <mxPoint x="-10" y="-10" as="offset" />
          </mxGeometry>
        </mxCell>
        <mxCell id="hnTEgbGnBb2S3VTNwjmt-2" value="Stimmung" style="html=1;verticalAlign=middle;labelBackgroundColor=none;startArrow=halfCircle;startFill=0;startSize=2;endArrow=none;rounded=0;labelPosition=left;verticalLabelPosition=middle;align=right;" edge="1" parent="1">
          <mxGeometry x="-1" y="-10" relative="1" as="geometry">
            <mxPoint x="310.0000000000001" y="200" as="sourcePoint" />
            <mxPoint x="340.0000000000001" y="200" as="targetPoint" />
            <mxPoint x="-10" y="-10" as="offset" />
          </mxGeometry>
        </mxCell>
        <mxCell id="hnTEgbGnBb2S3VTNwjmt-3" value="Genre" style="html=1;verticalAlign=middle;labelBackgroundColor=none;endArrow=oval;endFill=0;endSize=8;rounded=0;labelPosition=right;verticalLabelPosition=middle;align=left;" edge="1" parent="1">
          <mxGeometry x="1" y="10" width="160" relative="1" as="geometry">
            <mxPoint x="460" y="180" as="sourcePoint" />
            <mxPoint x="490" y="180" as="targetPoint" />
            <mxPoint x="10" y="10" as="offset" />
          </mxGeometry>
        </mxCell>
        <mxCell id="hnTEgbGnBb2S3VTNwjmt-4" value="Stimmung" style="html=1;verticalAlign=middle;labelBackgroundColor=none;endArrow=oval;endFill=0;endSize=8;rounded=0;labelPosition=right;verticalLabelPosition=middle;align=left;" edge="1" parent="1">
          <mxGeometry x="1" y="10" width="160" relative="1" as="geometry">
            <mxPoint x="460" y="200" as="sourcePoint" />
            <mxPoint x="490" y="200" as="targetPoint" />
            <mxPoint x="10" y="10" as="offset" />
          </mxGeometry>
        </mxCell>
      </root>
    </mxGraphModel>
  </diagram>
  <diagram id="9Ykb8u4myzaHsO1sNgIG" name="Animation">
    <mxGraphModel dx="1422" dy="766" grid="1" gridSize="10" guides="1" tooltips="1" connect="1" arrows="1" fold="1" page="1" pageScale="1" pageWidth="827" pageHeight="1169" math="0" shadow="0">
      <root>
        <mxCell id="0" />
        <mxCell id="1" parent="0" />
        <mxCell id="uMNEahNVEHUlMxa5SLzd-1" value="Tempo" style="html=1;verticalAlign=middle;labelBackgroundColor=none;startArrow=halfCircle;startFill=0;startSize=2;endArrow=none;rounded=0;labelPosition=right;verticalLabelPosition=middle;align=left;horizontal=0;" parent="1" edge="1">
          <mxGeometry x="-1" y="-10" relative="1" as="geometry">
            <mxPoint x="400" y="90" as="sourcePoint" />
            <mxPoint x="400" y="120" as="targetPoint" />
            <mxPoint x="10" y="-10" as="offset" />
          </mxGeometry>
        </mxCell>
        <mxCell id="uMNEahNVEHUlMxa5SLzd-3" value="Tonhöhe" style="html=1;verticalAlign=middle;labelBackgroundColor=none;startArrow=halfCircle;startFill=0;startSize=2;endArrow=none;rounded=0;labelPosition=right;verticalLabelPosition=middle;align=left;horizontal=0;" parent="1" edge="1">
          <mxGeometry x="-1" y="-10" relative="1" as="geometry">
            <mxPoint x="280" y="89.79999999999995" as="sourcePoint" />
            <mxPoint x="280" y="120" as="targetPoint" />
            <mxPoint x="10" y="-10" as="offset" />
          </mxGeometry>
        </mxCell>
        <mxCell id="uMNEahNVEHUlMxa5SLzd-4" value="Tonalität" style="html=1;verticalAlign=middle;labelBackgroundColor=none;startArrow=halfCircle;startFill=0;startSize=2;endArrow=none;rounded=0;labelPosition=right;verticalLabelPosition=middle;align=left;horizontal=0;" parent="1" edge="1">
          <mxGeometry x="-1" y="-10" relative="1" as="geometry">
            <mxPoint x="320" y="90" as="sourcePoint" />
            <mxPoint x="320" y="120" as="targetPoint" />
            <mxPoint x="10" y="-10" as="offset" />
          </mxGeometry>
        </mxCell>
        <mxCell id="uMNEahNVEHUlMxa5SLzd-5" value="" style="rounded=0;whiteSpace=wrap;html=1;fontSize=12;strokeWidth=1;fillColor=none;" parent="1" vertex="1">
          <mxGeometry x="100" y="120" width="340" height="330" as="geometry" />
        </mxCell>
        <mxCell id="uMNEahNVEHUlMxa5SLzd-6" value="Lautstärke" style="html=1;verticalAlign=middle;labelBackgroundColor=none;startArrow=halfCircle;startFill=0;startSize=2;endArrow=none;rounded=0;labelPosition=right;verticalLabelPosition=middle;align=left;horizontal=0;" parent="1" edge="1">
          <mxGeometry x="-1" y="-10" relative="1" as="geometry">
            <mxPoint x="360" y="89.79999999999995" as="sourcePoint" />
            <mxPoint x="360" y="120" as="targetPoint" />
            <mxPoint x="10" y="-10" as="offset" />
          </mxGeometry>
        </mxCell>
        <mxCell id="uMNEahNVEHUlMxa5SLzd-7" value="Addieren" style="rounded=0;whiteSpace=wrap;html=1;fontSize=12;strokeWidth=1;fillColor=none;" parent="1" vertex="1">
          <mxGeometry x="260" y="140" width="80" height="30" as="geometry" />
        </mxCell>
        <mxCell id="uMNEahNVEHUlMxa5SLzd-67" value="RGB-Matrizen&lt;br&gt;(Graustufen)" style="text;html=1;align=center;verticalAlign=middle;resizable=0;points=[];autosize=1;strokeColor=none;fillColor=none;fontSize=12;" parent="1" vertex="1">
          <mxGeometry x="10" y="90" width="90" height="30" as="geometry" />
        </mxCell>
        <mxCell id="uMNEahNVEHUlMxa5SLzd-68" value="" style="shape=table;html=1;whiteSpace=wrap;startSize=0;container=1;collapsible=0;childLayout=tableLayout;shadow=0;sketch=0;fontSize=12;strokeColor=default;strokeWidth=1;fillColor=#00FF00;gradientColor=none;" parent="1" vertex="1">
          <mxGeometry x="310" y="200" width="30" height="30" as="geometry" />
        </mxCell>
        <mxCell id="uMNEahNVEHUlMxa5SLzd-69" value="" style="shape=tableRow;horizontal=0;startSize=0;swimlaneHead=0;swimlaneBody=0;top=0;left=0;bottom=0;right=0;collapsible=0;dropTarget=0;fillColor=none;points=[[0,0.5],[1,0.5]];portConstraint=eastwest;shadow=0;sketch=0;fontSize=12;strokeColor=default;strokeWidth=1;" parent="uMNEahNVEHUlMxa5SLzd-68" vertex="1">
          <mxGeometry width="30" height="10" as="geometry" />
        </mxCell>
        <mxCell id="uMNEahNVEHUlMxa5SLzd-70" value="" style="shape=partialRectangle;html=1;whiteSpace=wrap;connectable=0;fillColor=none;top=0;left=0;bottom=0;right=0;overflow=hidden;shadow=0;sketch=0;fontSize=12;strokeColor=default;strokeWidth=1;" parent="uMNEahNVEHUlMxa5SLzd-69" vertex="1">
          <mxGeometry width="11" height="10" as="geometry">
            <mxRectangle width="11" height="10" as="alternateBounds" />
          </mxGeometry>
        </mxCell>
        <mxCell id="uMNEahNVEHUlMxa5SLzd-71" value="" style="shape=partialRectangle;html=1;whiteSpace=wrap;connectable=0;fillColor=none;top=0;left=0;bottom=0;right=0;overflow=hidden;shadow=0;sketch=0;fontSize=12;strokeColor=default;strokeWidth=1;" parent="uMNEahNVEHUlMxa5SLzd-69" vertex="1">
          <mxGeometry x="11" width="9" height="10" as="geometry">
            <mxRectangle width="9" height="10" as="alternateBounds" />
          </mxGeometry>
        </mxCell>
        <mxCell id="uMNEahNVEHUlMxa5SLzd-72" value="" style="shape=partialRectangle;html=1;whiteSpace=wrap;connectable=0;fillColor=none;top=0;left=0;bottom=0;right=0;overflow=hidden;shadow=0;sketch=0;fontSize=12;strokeColor=default;strokeWidth=1;" parent="uMNEahNVEHUlMxa5SLzd-69" vertex="1">
          <mxGeometry x="20" width="10" height="10" as="geometry">
            <mxRectangle width="10" height="10" as="alternateBounds" />
          </mxGeometry>
        </mxCell>
        <mxCell id="uMNEahNVEHUlMxa5SLzd-73" value="" style="shape=tableRow;horizontal=0;startSize=0;swimlaneHead=0;swimlaneBody=0;top=0;left=0;bottom=0;right=0;collapsible=0;dropTarget=0;fillColor=none;points=[[0,0.5],[1,0.5]];portConstraint=eastwest;shadow=0;sketch=0;fontSize=12;strokeColor=default;strokeWidth=1;" parent="uMNEahNVEHUlMxa5SLzd-68" vertex="1">
          <mxGeometry y="10" width="30" height="10" as="geometry" />
        </mxCell>
        <mxCell id="uMNEahNVEHUlMxa5SLzd-74" value="" style="shape=partialRectangle;html=1;whiteSpace=wrap;connectable=0;fillColor=none;top=0;left=0;bottom=0;right=0;overflow=hidden;shadow=0;sketch=0;fontSize=12;strokeColor=default;strokeWidth=1;" parent="uMNEahNVEHUlMxa5SLzd-73" vertex="1">
          <mxGeometry width="11" height="10" as="geometry">
            <mxRectangle width="11" height="10" as="alternateBounds" />
          </mxGeometry>
        </mxCell>
        <mxCell id="uMNEahNVEHUlMxa5SLzd-75" value="" style="shape=partialRectangle;html=1;whiteSpace=wrap;connectable=0;fillColor=none;top=0;left=0;bottom=0;right=0;overflow=hidden;shadow=0;sketch=0;fontSize=12;strokeColor=default;strokeWidth=1;" parent="uMNEahNVEHUlMxa5SLzd-73" vertex="1">
          <mxGeometry x="11" width="9" height="10" as="geometry">
            <mxRectangle width="9" height="10" as="alternateBounds" />
          </mxGeometry>
        </mxCell>
        <mxCell id="uMNEahNVEHUlMxa5SLzd-76" value="" style="shape=partialRectangle;html=1;whiteSpace=wrap;connectable=0;fillColor=none;top=0;left=0;bottom=0;right=0;overflow=hidden;shadow=0;sketch=0;fontSize=12;strokeColor=default;strokeWidth=1;" parent="uMNEahNVEHUlMxa5SLzd-73" vertex="1">
          <mxGeometry x="20" width="10" height="10" as="geometry">
            <mxRectangle width="10" height="10" as="alternateBounds" />
          </mxGeometry>
        </mxCell>
        <mxCell id="uMNEahNVEHUlMxa5SLzd-77" value="" style="shape=tableRow;horizontal=0;startSize=0;swimlaneHead=0;swimlaneBody=0;top=0;left=0;bottom=0;right=0;collapsible=0;dropTarget=0;fillColor=none;points=[[0,0.5],[1,0.5]];portConstraint=eastwest;shadow=0;sketch=0;fontSize=12;strokeColor=default;strokeWidth=1;" parent="uMNEahNVEHUlMxa5SLzd-68" vertex="1">
          <mxGeometry y="20" width="30" height="10" as="geometry" />
        </mxCell>
        <mxCell id="uMNEahNVEHUlMxa5SLzd-78" value="" style="shape=partialRectangle;html=1;whiteSpace=wrap;connectable=0;fillColor=none;top=0;left=0;bottom=0;right=0;overflow=hidden;shadow=0;sketch=0;fontSize=12;strokeColor=default;strokeWidth=1;" parent="uMNEahNVEHUlMxa5SLzd-77" vertex="1">
          <mxGeometry width="11" height="10" as="geometry">
            <mxRectangle width="11" height="10" as="alternateBounds" />
          </mxGeometry>
        </mxCell>
        <mxCell id="uMNEahNVEHUlMxa5SLzd-79" value="" style="shape=partialRectangle;html=1;whiteSpace=wrap;connectable=0;fillColor=none;top=0;left=0;bottom=0;right=0;overflow=hidden;shadow=0;sketch=0;fontSize=12;strokeColor=default;strokeWidth=1;" parent="uMNEahNVEHUlMxa5SLzd-77" vertex="1">
          <mxGeometry x="11" width="9" height="10" as="geometry">
            <mxRectangle width="9" height="10" as="alternateBounds" />
          </mxGeometry>
        </mxCell>
        <mxCell id="uMNEahNVEHUlMxa5SLzd-80" value="" style="shape=partialRectangle;html=1;whiteSpace=wrap;connectable=0;fillColor=none;top=0;left=0;bottom=0;right=0;overflow=hidden;pointerEvents=1;shadow=0;sketch=0;fontSize=12;strokeColor=default;strokeWidth=1;" parent="uMNEahNVEHUlMxa5SLzd-77" vertex="1">
          <mxGeometry x="20" width="10" height="10" as="geometry">
            <mxRectangle width="10" height="10" as="alternateBounds" />
          </mxGeometry>
        </mxCell>
        <mxCell id="uMNEahNVEHUlMxa5SLzd-81" value="RGB-Matrix&lt;br&gt;(gefärbt)" style="text;html=1;align=center;verticalAlign=middle;resizable=0;points=[];autosize=1;strokeColor=none;fillColor=none;fontSize=12;" parent="1" vertex="1">
          <mxGeometry x="230" y="210" width="80" height="30" as="geometry" />
        </mxCell>
        <mxCell id="uMNEahNVEHUlMxa5SLzd-84" value="" style="endArrow=classic;html=1;rounded=0;labelBackgroundColor=none;labelBorderColor=none;fontSize=12;" parent="1" edge="1">
          <mxGeometry width="50" height="50" relative="1" as="geometry">
            <mxPoint x="324.91999999999996" y="170" as="sourcePoint" />
            <mxPoint x="325" y="200" as="targetPoint" />
          </mxGeometry>
        </mxCell>
        <mxCell id="uMNEahNVEHUlMxa5SLzd-85" value="Addieren" style="rounded=0;whiteSpace=wrap;html=1;fontSize=12;strokeWidth=1;fillColor=none;" parent="1" vertex="1">
          <mxGeometry x="310" y="260" width="70" height="30" as="geometry" />
        </mxCell>
        <mxCell id="uMNEahNVEHUlMxa5SLzd-87" value="" style="endArrow=classic;html=1;rounded=0;labelBackgroundColor=none;labelBorderColor=none;fontSize=12;exitX=0.5;exitY=1;exitDx=0;exitDy=0;" parent="1" source="uMNEahNVEHUlMxa5SLzd-68" edge="1">
          <mxGeometry width="50" height="50" relative="1" as="geometry">
            <mxPoint x="325" y="240" as="sourcePoint" />
            <mxPoint x="324.83" y="260" as="targetPoint" />
          </mxGeometry>
        </mxCell>
        <mxCell id="uMNEahNVEHUlMxa5SLzd-89" value="" style="shape=table;html=1;whiteSpace=wrap;startSize=0;container=1;collapsible=0;childLayout=tableLayout;shadow=0;sketch=0;fontSize=12;strokeColor=default;strokeWidth=1;fillColor=#00A600;gradientColor=none;" parent="1" vertex="1">
          <mxGeometry x="350" y="320" width="30" height="30" as="geometry" />
        </mxCell>
        <mxCell id="uMNEahNVEHUlMxa5SLzd-90" value="" style="shape=tableRow;horizontal=0;startSize=0;swimlaneHead=0;swimlaneBody=0;top=0;left=0;bottom=0;right=0;collapsible=0;dropTarget=0;fillColor=none;points=[[0,0.5],[1,0.5]];portConstraint=eastwest;shadow=0;sketch=0;fontSize=12;strokeColor=default;strokeWidth=1;" parent="uMNEahNVEHUlMxa5SLzd-89" vertex="1">
          <mxGeometry width="30" height="10" as="geometry" />
        </mxCell>
        <mxCell id="uMNEahNVEHUlMxa5SLzd-91" value="" style="shape=partialRectangle;html=1;whiteSpace=wrap;connectable=0;fillColor=none;top=0;left=0;bottom=0;right=0;overflow=hidden;shadow=0;sketch=0;fontSize=12;strokeColor=default;strokeWidth=1;" parent="uMNEahNVEHUlMxa5SLzd-90" vertex="1">
          <mxGeometry width="11" height="10" as="geometry">
            <mxRectangle width="11" height="10" as="alternateBounds" />
          </mxGeometry>
        </mxCell>
        <mxCell id="uMNEahNVEHUlMxa5SLzd-92" value="" style="shape=partialRectangle;html=1;whiteSpace=wrap;connectable=0;fillColor=none;top=0;left=0;bottom=0;right=0;overflow=hidden;shadow=0;sketch=0;fontSize=12;strokeColor=default;strokeWidth=1;" parent="uMNEahNVEHUlMxa5SLzd-90" vertex="1">
          <mxGeometry x="11" width="9" height="10" as="geometry">
            <mxRectangle width="9" height="10" as="alternateBounds" />
          </mxGeometry>
        </mxCell>
        <mxCell id="uMNEahNVEHUlMxa5SLzd-93" value="" style="shape=partialRectangle;html=1;whiteSpace=wrap;connectable=0;fillColor=none;top=0;left=0;bottom=0;right=0;overflow=hidden;shadow=0;sketch=0;fontSize=12;strokeColor=default;strokeWidth=1;" parent="uMNEahNVEHUlMxa5SLzd-90" vertex="1">
          <mxGeometry x="20" width="10" height="10" as="geometry">
            <mxRectangle width="10" height="10" as="alternateBounds" />
          </mxGeometry>
        </mxCell>
        <mxCell id="uMNEahNVEHUlMxa5SLzd-94" value="" style="shape=tableRow;horizontal=0;startSize=0;swimlaneHead=0;swimlaneBody=0;top=0;left=0;bottom=0;right=0;collapsible=0;dropTarget=0;fillColor=none;points=[[0,0.5],[1,0.5]];portConstraint=eastwest;shadow=0;sketch=0;fontSize=12;strokeColor=default;strokeWidth=1;" parent="uMNEahNVEHUlMxa5SLzd-89" vertex="1">
          <mxGeometry y="10" width="30" height="10" as="geometry" />
        </mxCell>
        <mxCell id="uMNEahNVEHUlMxa5SLzd-95" value="" style="shape=partialRectangle;html=1;whiteSpace=wrap;connectable=0;fillColor=none;top=0;left=0;bottom=0;right=0;overflow=hidden;shadow=0;sketch=0;fontSize=12;strokeColor=default;strokeWidth=1;" parent="uMNEahNVEHUlMxa5SLzd-94" vertex="1">
          <mxGeometry width="11" height="10" as="geometry">
            <mxRectangle width="11" height="10" as="alternateBounds" />
          </mxGeometry>
        </mxCell>
        <mxCell id="uMNEahNVEHUlMxa5SLzd-96" value="" style="shape=partialRectangle;html=1;whiteSpace=wrap;connectable=0;fillColor=none;top=0;left=0;bottom=0;right=0;overflow=hidden;shadow=0;sketch=0;fontSize=12;strokeColor=default;strokeWidth=1;" parent="uMNEahNVEHUlMxa5SLzd-94" vertex="1">
          <mxGeometry x="11" width="9" height="10" as="geometry">
            <mxRectangle width="9" height="10" as="alternateBounds" />
          </mxGeometry>
        </mxCell>
        <mxCell id="uMNEahNVEHUlMxa5SLzd-97" value="" style="shape=partialRectangle;html=1;whiteSpace=wrap;connectable=0;fillColor=none;top=0;left=0;bottom=0;right=0;overflow=hidden;shadow=0;sketch=0;fontSize=12;strokeColor=default;strokeWidth=1;" parent="uMNEahNVEHUlMxa5SLzd-94" vertex="1">
          <mxGeometry x="20" width="10" height="10" as="geometry">
            <mxRectangle width="10" height="10" as="alternateBounds" />
          </mxGeometry>
        </mxCell>
        <mxCell id="uMNEahNVEHUlMxa5SLzd-98" value="" style="shape=tableRow;horizontal=0;startSize=0;swimlaneHead=0;swimlaneBody=0;top=0;left=0;bottom=0;right=0;collapsible=0;dropTarget=0;fillColor=none;points=[[0,0.5],[1,0.5]];portConstraint=eastwest;shadow=0;sketch=0;fontSize=12;strokeColor=default;strokeWidth=1;" parent="uMNEahNVEHUlMxa5SLzd-89" vertex="1">
          <mxGeometry y="20" width="30" height="10" as="geometry" />
        </mxCell>
        <mxCell id="uMNEahNVEHUlMxa5SLzd-99" value="" style="shape=partialRectangle;html=1;whiteSpace=wrap;connectable=0;fillColor=none;top=0;left=0;bottom=0;right=0;overflow=hidden;shadow=0;sketch=0;fontSize=12;strokeColor=default;strokeWidth=1;" parent="uMNEahNVEHUlMxa5SLzd-98" vertex="1">
          <mxGeometry width="11" height="10" as="geometry">
            <mxRectangle width="11" height="10" as="alternateBounds" />
          </mxGeometry>
        </mxCell>
        <mxCell id="uMNEahNVEHUlMxa5SLzd-100" value="" style="shape=partialRectangle;html=1;whiteSpace=wrap;connectable=0;fillColor=none;top=0;left=0;bottom=0;right=0;overflow=hidden;shadow=0;sketch=0;fontSize=12;strokeColor=default;strokeWidth=1;" parent="uMNEahNVEHUlMxa5SLzd-98" vertex="1">
          <mxGeometry x="11" width="9" height="10" as="geometry">
            <mxRectangle width="9" height="10" as="alternateBounds" />
          </mxGeometry>
        </mxCell>
        <mxCell id="uMNEahNVEHUlMxa5SLzd-101" value="" style="shape=partialRectangle;html=1;whiteSpace=wrap;connectable=0;fillColor=none;top=0;left=0;bottom=0;right=0;overflow=hidden;pointerEvents=1;shadow=0;sketch=0;fontSize=12;strokeColor=default;strokeWidth=1;" parent="uMNEahNVEHUlMxa5SLzd-98" vertex="1">
          <mxGeometry x="20" width="10" height="10" as="geometry">
            <mxRectangle width="10" height="10" as="alternateBounds" />
          </mxGeometry>
        </mxCell>
        <mxCell id="uMNEahNVEHUlMxa5SLzd-102" value="RGB-Matrix&lt;br&gt;(gefärbt + Heligkeit)" style="text;html=1;align=center;verticalAlign=middle;resizable=0;points=[];autosize=1;strokeColor=none;fillColor=none;fontSize=12;" parent="1" vertex="1">
          <mxGeometry x="230" y="320" width="120" height="30" as="geometry" />
        </mxCell>
        <mxCell id="uMNEahNVEHUlMxa5SLzd-103" value="" style="endArrow=classic;html=1;rounded=0;labelBackgroundColor=none;labelBorderColor=none;fontSize=12;" parent="1" edge="1">
          <mxGeometry width="50" height="50" relative="1" as="geometry">
            <mxPoint x="364.80000000000007" y="290" as="sourcePoint" />
            <mxPoint x="364.88" y="320" as="targetPoint" />
          </mxGeometry>
        </mxCell>
        <mxCell id="uMNEahNVEHUlMxa5SLzd-106" value="Animation darstellen" style="rounded=0;whiteSpace=wrap;html=1;fontSize=12;strokeWidth=1;fillColor=none;" parent="1" vertex="1">
          <mxGeometry x="290" y="380" width="130" height="30" as="geometry" />
        </mxCell>
        <mxCell id="uMNEahNVEHUlMxa5SLzd-107" value="" style="endArrow=classic;html=1;rounded=0;labelBackgroundColor=none;labelBorderColor=none;fontSize=12;" parent="1" edge="1">
          <mxGeometry width="50" height="50" relative="1" as="geometry">
            <mxPoint x="364.83000000000015" y="350" as="sourcePoint" />
            <mxPoint x="364.9100000000001" y="380" as="targetPoint" />
          </mxGeometry>
        </mxCell>
        <mxCell id="uMNEahNVEHUlMxa5SLzd-108" value="" style="shape=table;html=1;whiteSpace=wrap;startSize=0;container=1;collapsible=0;childLayout=tableLayout;shadow=0;sketch=0;fontSize=12;strokeColor=default;strokeWidth=1;fillColor=none;gradientColor=none;swimlaneLine=1;columnLines=1;rowLines=1;" parent="1" vertex="1">
          <mxGeometry x="230" y="480" width="30" height="10" as="geometry" />
        </mxCell>
        <mxCell id="uMNEahNVEHUlMxa5SLzd-109" value="" style="shape=tableRow;horizontal=0;startSize=0;swimlaneHead=0;swimlaneBody=0;top=0;left=0;bottom=0;right=0;collapsible=0;dropTarget=0;fillColor=none;points=[[0,0.5],[1,0.5]];portConstraint=eastwest;shadow=0;sketch=0;fontSize=12;strokeColor=default;strokeWidth=1;" parent="uMNEahNVEHUlMxa5SLzd-108" vertex="1">
          <mxGeometry width="30" height="10" as="geometry" />
        </mxCell>
        <mxCell id="uMNEahNVEHUlMxa5SLzd-110" value="" style="shape=partialRectangle;html=1;whiteSpace=wrap;connectable=0;fillColor=none;top=0;left=0;bottom=0;right=0;overflow=hidden;shadow=0;sketch=0;fontSize=12;strokeColor=default;strokeWidth=1;" parent="uMNEahNVEHUlMxa5SLzd-109" vertex="1">
          <mxGeometry width="11" height="10" as="geometry">
            <mxRectangle width="11" height="10" as="alternateBounds" />
          </mxGeometry>
        </mxCell>
        <mxCell id="uMNEahNVEHUlMxa5SLzd-111" value="" style="shape=partialRectangle;html=1;whiteSpace=wrap;connectable=0;fillColor=none;top=0;left=0;bottom=0;right=0;overflow=hidden;shadow=0;sketch=0;fontSize=12;strokeColor=default;strokeWidth=1;" parent="uMNEahNVEHUlMxa5SLzd-109" vertex="1">
          <mxGeometry x="11" width="9" height="10" as="geometry">
            <mxRectangle width="9" height="10" as="alternateBounds" />
          </mxGeometry>
        </mxCell>
        <mxCell id="uMNEahNVEHUlMxa5SLzd-112" value="" style="shape=partialRectangle;html=1;whiteSpace=wrap;connectable=0;fillColor=none;top=0;left=0;bottom=0;right=0;overflow=hidden;shadow=0;sketch=0;fontSize=12;strokeColor=default;strokeWidth=1;" parent="uMNEahNVEHUlMxa5SLzd-109" vertex="1">
          <mxGeometry x="20" width="10" height="10" as="geometry">
            <mxRectangle width="10" height="10" as="alternateBounds" />
          </mxGeometry>
        </mxCell>
        <mxCell id="uMNEahNVEHUlMxa5SLzd-121" value="" style="shape=table;html=1;whiteSpace=wrap;startSize=0;container=1;collapsible=0;childLayout=tableLayout;shadow=0;sketch=0;fontSize=12;strokeColor=default;strokeWidth=1;fillColor=none;gradientColor=none;swimlaneLine=1;columnLines=1;rowLines=1;" parent="1" vertex="1">
          <mxGeometry x="260" y="480" width="30" height="10" as="geometry" />
        </mxCell>
        <mxCell id="uMNEahNVEHUlMxa5SLzd-122" value="" style="shape=tableRow;horizontal=0;startSize=0;swimlaneHead=0;swimlaneBody=0;top=0;left=0;bottom=0;right=0;collapsible=0;dropTarget=0;fillColor=none;points=[[0,0.5],[1,0.5]];portConstraint=eastwest;shadow=0;sketch=0;fontSize=12;strokeColor=default;strokeWidth=1;" parent="uMNEahNVEHUlMxa5SLzd-121" vertex="1">
          <mxGeometry width="30" height="10" as="geometry" />
        </mxCell>
        <mxCell id="uMNEahNVEHUlMxa5SLzd-123" value="" style="shape=partialRectangle;html=1;whiteSpace=wrap;connectable=0;fillColor=none;top=0;left=0;bottom=0;right=0;overflow=hidden;shadow=0;sketch=0;fontSize=12;strokeColor=default;strokeWidth=1;" parent="uMNEahNVEHUlMxa5SLzd-122" vertex="1">
          <mxGeometry width="11" height="10" as="geometry">
            <mxRectangle width="11" height="10" as="alternateBounds" />
          </mxGeometry>
        </mxCell>
        <mxCell id="uMNEahNVEHUlMxa5SLzd-124" value="" style="shape=partialRectangle;html=1;whiteSpace=wrap;connectable=0;fillColor=none;top=0;left=0;bottom=0;right=0;overflow=hidden;shadow=0;sketch=0;fontSize=12;strokeColor=default;strokeWidth=1;" parent="uMNEahNVEHUlMxa5SLzd-122" vertex="1">
          <mxGeometry x="11" width="9" height="10" as="geometry">
            <mxRectangle width="9" height="10" as="alternateBounds" />
          </mxGeometry>
        </mxCell>
        <mxCell id="uMNEahNVEHUlMxa5SLzd-125" value="" style="shape=partialRectangle;html=1;whiteSpace=wrap;connectable=0;fillColor=none;top=0;left=0;bottom=0;right=0;overflow=hidden;shadow=0;sketch=0;fontSize=12;strokeColor=default;strokeWidth=1;" parent="uMNEahNVEHUlMxa5SLzd-122" vertex="1">
          <mxGeometry x="20" width="10" height="10" as="geometry">
            <mxRectangle width="10" height="10" as="alternateBounds" />
          </mxGeometry>
        </mxCell>
        <mxCell id="uMNEahNVEHUlMxa5SLzd-131" value="" style="shape=table;html=1;whiteSpace=wrap;startSize=0;container=1;collapsible=0;childLayout=tableLayout;shadow=0;sketch=0;fontSize=12;strokeColor=default;strokeWidth=1;fillColor=none;gradientColor=none;swimlaneLine=1;columnLines=1;rowLines=1;" parent="1" vertex="1">
          <mxGeometry x="290" y="480" width="30" height="10" as="geometry" />
        </mxCell>
        <mxCell id="uMNEahNVEHUlMxa5SLzd-132" value="" style="shape=tableRow;horizontal=0;startSize=0;swimlaneHead=0;swimlaneBody=0;top=0;left=0;bottom=0;right=0;collapsible=0;dropTarget=0;fillColor=none;points=[[0,0.5],[1,0.5]];portConstraint=eastwest;shadow=0;sketch=0;fontSize=12;strokeColor=default;strokeWidth=1;" parent="uMNEahNVEHUlMxa5SLzd-131" vertex="1">
          <mxGeometry width="30" height="10" as="geometry" />
        </mxCell>
        <mxCell id="uMNEahNVEHUlMxa5SLzd-133" value="" style="shape=partialRectangle;html=1;whiteSpace=wrap;connectable=0;fillColor=none;top=0;left=0;bottom=0;right=0;overflow=hidden;shadow=0;sketch=0;fontSize=12;strokeColor=default;strokeWidth=1;" parent="uMNEahNVEHUlMxa5SLzd-132" vertex="1">
          <mxGeometry width="11" height="10" as="geometry">
            <mxRectangle width="11" height="10" as="alternateBounds" />
          </mxGeometry>
        </mxCell>
        <mxCell id="uMNEahNVEHUlMxa5SLzd-134" value="" style="shape=partialRectangle;html=1;whiteSpace=wrap;connectable=0;fillColor=none;top=0;left=0;bottom=0;right=0;overflow=hidden;shadow=0;sketch=0;fontSize=12;strokeColor=default;strokeWidth=1;" parent="uMNEahNVEHUlMxa5SLzd-132" vertex="1">
          <mxGeometry x="11" width="9" height="10" as="geometry">
            <mxRectangle width="9" height="10" as="alternateBounds" />
          </mxGeometry>
        </mxCell>
        <mxCell id="uMNEahNVEHUlMxa5SLzd-135" value="" style="shape=partialRectangle;html=1;whiteSpace=wrap;connectable=0;fillColor=none;top=0;left=0;bottom=0;right=0;overflow=hidden;shadow=0;sketch=0;fontSize=12;strokeColor=default;strokeWidth=1;" parent="uMNEahNVEHUlMxa5SLzd-132" vertex="1">
          <mxGeometry x="20" width="10" height="10" as="geometry">
            <mxRectangle width="10" height="10" as="alternateBounds" />
          </mxGeometry>
        </mxCell>
        <mxCell id="uMNEahNVEHUlMxa5SLzd-136" value="" style="shape=table;html=1;whiteSpace=wrap;startSize=0;container=1;collapsible=0;childLayout=tableLayout;shadow=0;sketch=0;fontSize=12;strokeColor=default;strokeWidth=1;fillColor=none;gradientColor=none;swimlaneLine=1;columnLines=1;rowLines=1;" parent="1" vertex="1">
          <mxGeometry x="320" y="480" width="30" height="10" as="geometry" />
        </mxCell>
        <mxCell id="uMNEahNVEHUlMxa5SLzd-137" value="" style="shape=tableRow;horizontal=0;startSize=0;swimlaneHead=0;swimlaneBody=0;top=0;left=0;bottom=0;right=0;collapsible=0;dropTarget=0;fillColor=none;points=[[0,0.5],[1,0.5]];portConstraint=eastwest;shadow=0;sketch=0;fontSize=12;strokeColor=default;strokeWidth=1;" parent="uMNEahNVEHUlMxa5SLzd-136" vertex="1">
          <mxGeometry width="30" height="10" as="geometry" />
        </mxCell>
        <mxCell id="uMNEahNVEHUlMxa5SLzd-138" value="" style="shape=partialRectangle;html=1;whiteSpace=wrap;connectable=0;fillColor=none;top=0;left=0;bottom=0;right=0;overflow=hidden;shadow=0;sketch=0;fontSize=12;strokeColor=default;strokeWidth=1;" parent="uMNEahNVEHUlMxa5SLzd-137" vertex="1">
          <mxGeometry width="11" height="10" as="geometry">
            <mxRectangle width="11" height="10" as="alternateBounds" />
          </mxGeometry>
        </mxCell>
        <mxCell id="uMNEahNVEHUlMxa5SLzd-139" value="" style="shape=partialRectangle;html=1;whiteSpace=wrap;connectable=0;fillColor=none;top=0;left=0;bottom=0;right=0;overflow=hidden;shadow=0;sketch=0;fontSize=12;strokeColor=default;strokeWidth=1;" parent="uMNEahNVEHUlMxa5SLzd-137" vertex="1">
          <mxGeometry x="11" width="9" height="10" as="geometry">
            <mxRectangle width="9" height="10" as="alternateBounds" />
          </mxGeometry>
        </mxCell>
        <mxCell id="uMNEahNVEHUlMxa5SLzd-140" value="" style="shape=partialRectangle;html=1;whiteSpace=wrap;connectable=0;fillColor=none;top=0;left=0;bottom=0;right=0;overflow=hidden;shadow=0;sketch=0;fontSize=12;strokeColor=default;strokeWidth=1;" parent="uMNEahNVEHUlMxa5SLzd-137" vertex="1">
          <mxGeometry x="20" width="10" height="10" as="geometry">
            <mxRectangle width="10" height="10" as="alternateBounds" />
          </mxGeometry>
        </mxCell>
        <mxCell id="uMNEahNVEHUlMxa5SLzd-151" value="" style="shape=table;html=1;whiteSpace=wrap;startSize=0;container=1;collapsible=0;childLayout=tableLayout;shadow=0;sketch=0;fontSize=12;strokeColor=default;strokeWidth=1;fillColor=none;gradientColor=none;swimlaneLine=1;columnLines=1;rowLines=1;" parent="1" vertex="1">
          <mxGeometry x="410" y="480" width="30" height="10" as="geometry" />
        </mxCell>
        <mxCell id="uMNEahNVEHUlMxa5SLzd-152" value="" style="shape=tableRow;horizontal=0;startSize=0;swimlaneHead=0;swimlaneBody=0;top=0;left=0;bottom=0;right=0;collapsible=0;dropTarget=0;fillColor=none;points=[[0,0.5],[1,0.5]];portConstraint=eastwest;shadow=0;sketch=0;fontSize=12;strokeColor=default;strokeWidth=1;" parent="uMNEahNVEHUlMxa5SLzd-151" vertex="1">
          <mxGeometry width="30" height="10" as="geometry" />
        </mxCell>
        <mxCell id="uMNEahNVEHUlMxa5SLzd-153" value="" style="shape=partialRectangle;html=1;whiteSpace=wrap;connectable=0;fillColor=none;top=0;left=0;bottom=0;right=0;overflow=hidden;shadow=0;sketch=0;fontSize=12;strokeColor=default;strokeWidth=1;" parent="uMNEahNVEHUlMxa5SLzd-152" vertex="1">
          <mxGeometry width="11" height="10" as="geometry">
            <mxRectangle width="11" height="10" as="alternateBounds" />
          </mxGeometry>
        </mxCell>
        <mxCell id="uMNEahNVEHUlMxa5SLzd-154" value="" style="shape=partialRectangle;html=1;whiteSpace=wrap;connectable=0;fillColor=none;top=0;left=0;bottom=0;right=0;overflow=hidden;shadow=0;sketch=0;fontSize=12;strokeColor=default;strokeWidth=1;" parent="uMNEahNVEHUlMxa5SLzd-152" vertex="1">
          <mxGeometry x="11" width="9" height="10" as="geometry">
            <mxRectangle width="9" height="10" as="alternateBounds" />
          </mxGeometry>
        </mxCell>
        <mxCell id="uMNEahNVEHUlMxa5SLzd-155" value="" style="shape=partialRectangle;html=1;whiteSpace=wrap;connectable=0;fillColor=none;top=0;left=0;bottom=0;right=0;overflow=hidden;shadow=0;sketch=0;fontSize=12;strokeColor=default;strokeWidth=1;" parent="uMNEahNVEHUlMxa5SLzd-152" vertex="1">
          <mxGeometry x="20" width="10" height="10" as="geometry">
            <mxRectangle width="10" height="10" as="alternateBounds" />
          </mxGeometry>
        </mxCell>
        <mxCell id="uMNEahNVEHUlMxa5SLzd-156" value="" style="endArrow=none;html=1;rounded=0;labelBackgroundColor=none;labelBorderColor=none;fontSize=12;" parent="1" edge="1">
          <mxGeometry width="50" height="50" relative="1" as="geometry">
            <mxPoint x="360" y="500" as="sourcePoint" />
            <mxPoint x="390" y="470" as="targetPoint" />
          </mxGeometry>
        </mxCell>
        <mxCell id="uMNEahNVEHUlMxa5SLzd-157" value="" style="endArrow=none;html=1;rounded=0;labelBackgroundColor=none;labelBorderColor=none;fontSize=12;" parent="1" edge="1">
          <mxGeometry width="50" height="50" relative="1" as="geometry">
            <mxPoint x="370" y="500" as="sourcePoint" />
            <mxPoint x="400" y="470" as="targetPoint" />
          </mxGeometry>
        </mxCell>
        <mxCell id="uMNEahNVEHUlMxa5SLzd-159" value="" style="endArrow=none;html=1;rounded=0;labelBackgroundColor=none;labelBorderColor=none;fontSize=12;entryX=1;entryY=0;entryDx=0;entryDy=0;entryPerimeter=0;" parent="1" target="uMNEahNVEHUlMxa5SLzd-137" edge="1">
          <mxGeometry width="50" height="50" relative="1" as="geometry">
            <mxPoint x="380" y="480" as="sourcePoint" />
            <mxPoint x="390.06000000000006" y="489.93999999999994" as="targetPoint" />
          </mxGeometry>
        </mxCell>
        <mxCell id="uMNEahNVEHUlMxa5SLzd-161" value="" style="endArrow=none;html=1;rounded=0;labelBackgroundColor=none;labelBorderColor=none;fontSize=12;entryX=1.003;entryY=0.997;entryDx=0;entryDy=0;entryPerimeter=0;" parent="1" target="uMNEahNVEHUlMxa5SLzd-137" edge="1">
          <mxGeometry width="50" height="50" relative="1" as="geometry">
            <mxPoint x="370" y="490" as="sourcePoint" />
            <mxPoint x="390" y="470" as="targetPoint" />
          </mxGeometry>
        </mxCell>
        <mxCell id="uMNEahNVEHUlMxa5SLzd-163" value="" style="endArrow=none;html=1;rounded=0;labelBackgroundColor=none;labelBorderColor=none;fontSize=12;entryX=1;entryY=0;entryDx=0;entryDy=0;entryPerimeter=0;" parent="1" edge="1">
          <mxGeometry width="50" height="50" relative="1" as="geometry">
            <mxPoint x="410" y="490" as="sourcePoint" />
            <mxPoint x="380" y="490" as="targetPoint" />
          </mxGeometry>
        </mxCell>
        <mxCell id="uMNEahNVEHUlMxa5SLzd-164" value="" style="endArrow=none;html=1;rounded=0;labelBackgroundColor=none;labelBorderColor=none;fontSize=12;entryX=1.003;entryY=0.997;entryDx=0;entryDy=0;entryPerimeter=0;" parent="1" edge="1">
          <mxGeometry width="50" height="50" relative="1" as="geometry">
            <mxPoint x="410" y="480.03" as="sourcePoint" />
            <mxPoint x="390.09000000000003" y="480" as="targetPoint" />
          </mxGeometry>
        </mxCell>
        <mxCell id="uMNEahNVEHUlMxa5SLzd-169" value="" style="endArrow=none;html=1;rounded=0;labelBackgroundColor=none;labelBorderColor=none;fontSize=12;" parent="1" edge="1">
          <mxGeometry width="50" height="50" relative="1" as="geometry">
            <mxPoint x="360" y="490" as="sourcePoint" />
            <mxPoint x="360" y="480" as="targetPoint" />
          </mxGeometry>
        </mxCell>
        <mxCell id="uMNEahNVEHUlMxa5SLzd-170" value="" style="endArrow=none;html=1;rounded=0;labelBackgroundColor=none;labelBorderColor=none;fontSize=12;" parent="1" edge="1">
          <mxGeometry width="50" height="50" relative="1" as="geometry">
            <mxPoint x="370" y="490" as="sourcePoint" />
            <mxPoint x="370" y="480" as="targetPoint" />
          </mxGeometry>
        </mxCell>
        <mxCell id="uMNEahNVEHUlMxa5SLzd-171" value="" style="endArrow=none;html=1;rounded=0;labelBackgroundColor=none;labelBorderColor=none;fontSize=12;" parent="1" edge="1">
          <mxGeometry width="50" height="50" relative="1" as="geometry">
            <mxPoint x="400" y="490" as="sourcePoint" />
            <mxPoint x="400" y="480" as="targetPoint" />
          </mxGeometry>
        </mxCell>
        <mxCell id="uMNEahNVEHUlMxa5SLzd-172" value="" style="endArrow=none;html=1;rounded=0;labelBackgroundColor=none;labelBorderColor=none;fontSize=12;" parent="1" edge="1">
          <mxGeometry width="50" height="50" relative="1" as="geometry">
            <mxPoint x="390" y="490" as="sourcePoint" />
            <mxPoint x="390" y="480" as="targetPoint" />
          </mxGeometry>
        </mxCell>
        <mxCell id="uMNEahNVEHUlMxa5SLzd-174" value="" style="endArrow=classic;html=1;rounded=0;labelBackgroundColor=none;labelBorderColor=none;fontSize=12;exitX=0.466;exitY=1.002;exitDx=0;exitDy=0;exitPerimeter=0;" parent="1" source="uMNEahNVEHUlMxa5SLzd-106" edge="1">
          <mxGeometry width="50" height="50" relative="1" as="geometry">
            <mxPoint x="384.7600000000001" y="409.9999999999999" as="sourcePoint" />
            <mxPoint x="350" y="480" as="targetPoint" />
          </mxGeometry>
        </mxCell>
        <mxCell id="uMNEahNVEHUlMxa5SLzd-175" value="LED-Streifen" style="text;html=1;align=center;verticalAlign=middle;resizable=0;points=[];autosize=1;strokeColor=none;fillColor=none;fontSize=12;" parent="1" vertex="1">
          <mxGeometry x="150" y="475" width="80" height="20" as="geometry" />
        </mxCell>
        <mxCell id="uMNEahNVEHUlMxa5SLzd-176" value="" style="shape=table;html=1;whiteSpace=wrap;startSize=0;container=1;collapsible=0;childLayout=tableLayout;shadow=0;sketch=0;fontSize=12;strokeColor=default;strokeWidth=1;fillColor=none;gradientColor=none;" parent="1" vertex="1">
          <mxGeometry x="45" y="205" width="40" height="30" as="geometry" />
        </mxCell>
        <mxCell id="uMNEahNVEHUlMxa5SLzd-177" value="" style="shape=tableRow;horizontal=0;startSize=0;swimlaneHead=0;swimlaneBody=0;top=0;left=0;bottom=0;right=0;collapsible=0;dropTarget=0;fillColor=none;points=[[0,0.5],[1,0.5]];portConstraint=eastwest;shadow=0;sketch=0;fontSize=12;strokeColor=default;strokeWidth=1;" parent="uMNEahNVEHUlMxa5SLzd-176" vertex="1">
          <mxGeometry width="40" height="10" as="geometry" />
        </mxCell>
        <mxCell id="uMNEahNVEHUlMxa5SLzd-178" value="" style="shape=partialRectangle;html=1;whiteSpace=wrap;connectable=0;fillColor=none;top=0;left=0;bottom=0;right=0;overflow=hidden;shadow=0;sketch=0;fontSize=12;strokeColor=default;strokeWidth=1;" parent="uMNEahNVEHUlMxa5SLzd-177" vertex="1">
          <mxGeometry width="15" height="10" as="geometry">
            <mxRectangle width="15" height="10" as="alternateBounds" />
          </mxGeometry>
        </mxCell>
        <mxCell id="uMNEahNVEHUlMxa5SLzd-179" value="" style="shape=partialRectangle;html=1;whiteSpace=wrap;connectable=0;fillColor=none;top=0;left=0;bottom=0;right=0;overflow=hidden;shadow=0;sketch=0;fontSize=12;strokeColor=default;strokeWidth=1;" parent="uMNEahNVEHUlMxa5SLzd-177" vertex="1">
          <mxGeometry x="15" width="12" height="10" as="geometry">
            <mxRectangle width="12" height="10" as="alternateBounds" />
          </mxGeometry>
        </mxCell>
        <mxCell id="uMNEahNVEHUlMxa5SLzd-180" value="" style="shape=partialRectangle;html=1;whiteSpace=wrap;connectable=0;fillColor=none;top=0;left=0;bottom=0;right=0;overflow=hidden;shadow=0;sketch=0;fontSize=12;strokeColor=default;strokeWidth=1;" parent="uMNEahNVEHUlMxa5SLzd-177" vertex="1">
          <mxGeometry x="27" width="13" height="10" as="geometry">
            <mxRectangle width="13" height="10" as="alternateBounds" />
          </mxGeometry>
        </mxCell>
        <mxCell id="uMNEahNVEHUlMxa5SLzd-181" value="" style="shape=tableRow;horizontal=0;startSize=0;swimlaneHead=0;swimlaneBody=0;top=0;left=0;bottom=0;right=0;collapsible=0;dropTarget=0;fillColor=none;points=[[0,0.5],[1,0.5]];portConstraint=eastwest;shadow=0;sketch=0;fontSize=12;strokeColor=default;strokeWidth=1;" parent="uMNEahNVEHUlMxa5SLzd-176" vertex="1">
          <mxGeometry y="10" width="40" height="20" as="geometry" />
        </mxCell>
        <mxCell id="uMNEahNVEHUlMxa5SLzd-182" value="" style="shape=partialRectangle;html=1;whiteSpace=wrap;connectable=0;fillColor=none;top=0;left=0;bottom=0;right=0;overflow=hidden;shadow=0;sketch=0;fontSize=12;strokeColor=default;strokeWidth=1;" parent="uMNEahNVEHUlMxa5SLzd-181" vertex="1">
          <mxGeometry width="15" height="20" as="geometry">
            <mxRectangle width="15" height="20" as="alternateBounds" />
          </mxGeometry>
        </mxCell>
        <mxCell id="uMNEahNVEHUlMxa5SLzd-183" value="" style="shape=partialRectangle;html=1;whiteSpace=wrap;connectable=0;fillColor=none;top=0;left=0;bottom=0;right=0;overflow=hidden;shadow=0;sketch=0;fontSize=12;strokeColor=default;strokeWidth=1;" parent="uMNEahNVEHUlMxa5SLzd-181" vertex="1">
          <mxGeometry x="15" width="12" height="20" as="geometry">
            <mxRectangle width="12" height="20" as="alternateBounds" />
          </mxGeometry>
        </mxCell>
        <mxCell id="uMNEahNVEHUlMxa5SLzd-184" value="" style="shape=partialRectangle;html=1;whiteSpace=wrap;connectable=0;fillColor=none;top=0;left=0;bottom=0;right=0;overflow=hidden;shadow=0;sketch=0;fontSize=12;strokeColor=default;strokeWidth=1;" parent="uMNEahNVEHUlMxa5SLzd-181" vertex="1">
          <mxGeometry x="27" width="13" height="20" as="geometry">
            <mxRectangle width="13" height="20" as="alternateBounds" />
          </mxGeometry>
        </mxCell>
        <mxCell id="uMNEahNVEHUlMxa5SLzd-189" value="Farbtabelle" style="text;html=1;align=center;verticalAlign=middle;resizable=0;points=[];autosize=1;strokeColor=none;fillColor=none;fontSize=12;" parent="1" vertex="1">
          <mxGeometry x="15" y="185" width="80" height="20" as="geometry" />
        </mxCell>
        <mxCell id="xdqgl0mqjsDer8rLaYYG-1" value="Animationscontainer" style="text;html=1;align=center;verticalAlign=middle;resizable=0;points=[];autosize=1;strokeColor=none;fillColor=none;fontSize=12;horizontal=0;" parent="1" vertex="1">
          <mxGeometry x="390" y="165" width="120" height="20" as="geometry" />
        </mxCell>
        <mxCell id="rtXaRLaOyk0-S2dm3rFx-16" value="" style="whiteSpace=wrap;html=1;aspect=fixed;fillColor=none;" vertex="1" parent="1">
          <mxGeometry x="75" y="160" width="10" height="10" as="geometry" />
        </mxCell>
        <mxCell id="rtXaRLaOyk0-S2dm3rFx-30" value="" style="whiteSpace=wrap;html=1;aspect=fixed;fillColor=none;" vertex="1" parent="1">
          <mxGeometry x="65" y="160" width="10" height="10" as="geometry" />
        </mxCell>
        <mxCell id="rtXaRLaOyk0-S2dm3rFx-31" value="" style="whiteSpace=wrap;html=1;aspect=fixed;fillColor=none;" vertex="1" parent="1">
          <mxGeometry x="55" y="160" width="10" height="10" as="geometry" />
        </mxCell>
        <mxCell id="rtXaRLaOyk0-S2dm3rFx-109" style="edgeStyle=orthogonalEdgeStyle;rounded=0;orthogonalLoop=1;jettySize=auto;html=1;entryX=0;entryY=0.5;entryDx=0;entryDy=0;endArrow=classicThin;endFill=1;startSize=6;" edge="1" parent="1" source="rtXaRLaOyk0-S2dm3rFx-32" target="rtXaRLaOyk0-S2dm3rFx-105">
          <mxGeometry relative="1" as="geometry" />
        </mxCell>
        <mxCell id="rtXaRLaOyk0-S2dm3rFx-32" value="" style="whiteSpace=wrap;html=1;aspect=fixed;fillColor=none;" vertex="1" parent="1">
          <mxGeometry x="75" y="150" width="10" height="10" as="geometry" />
        </mxCell>
        <mxCell id="rtXaRLaOyk0-S2dm3rFx-33" value="" style="whiteSpace=wrap;html=1;aspect=fixed;fillColor=none;" vertex="1" parent="1">
          <mxGeometry x="65" y="150" width="10" height="10" as="geometry" />
        </mxCell>
        <mxCell id="rtXaRLaOyk0-S2dm3rFx-34" value="" style="whiteSpace=wrap;html=1;aspect=fixed;fillColor=none;" vertex="1" parent="1">
          <mxGeometry x="55" y="150" width="10" height="10" as="geometry" />
        </mxCell>
        <mxCell id="rtXaRLaOyk0-S2dm3rFx-35" value="" style="whiteSpace=wrap;html=1;aspect=fixed;fillColor=none;" vertex="1" parent="1">
          <mxGeometry x="75" y="140" width="10" height="10" as="geometry" />
        </mxCell>
        <mxCell id="rtXaRLaOyk0-S2dm3rFx-36" value="" style="whiteSpace=wrap;html=1;aspect=fixed;fillColor=none;" vertex="1" parent="1">
          <mxGeometry x="65" y="140" width="10" height="10" as="geometry" />
        </mxCell>
        <mxCell id="rtXaRLaOyk0-S2dm3rFx-37" value="" style="whiteSpace=wrap;html=1;aspect=fixed;fillColor=none;" vertex="1" parent="1">
          <mxGeometry x="55" y="140" width="10" height="10" as="geometry" />
        </mxCell>
        <mxCell id="rtXaRLaOyk0-S2dm3rFx-45" value="" style="whiteSpace=wrap;html=1;aspect=fixed;fillColor=none;" vertex="1" parent="1">
          <mxGeometry x="40" y="125" width="10" height="10" as="geometry" />
        </mxCell>
        <mxCell id="rtXaRLaOyk0-S2dm3rFx-47" value="" style="whiteSpace=wrap;html=1;aspect=fixed;fillColor=none;" vertex="1" parent="1">
          <mxGeometry x="50" y="125" width="10" height="10" as="geometry" />
        </mxCell>
        <mxCell id="rtXaRLaOyk0-S2dm3rFx-48" value="" style="whiteSpace=wrap;html=1;aspect=fixed;fillColor=none;" vertex="1" parent="1">
          <mxGeometry x="60" y="125" width="10" height="10" as="geometry" />
        </mxCell>
        <mxCell id="rtXaRLaOyk0-S2dm3rFx-49" value="" style="whiteSpace=wrap;html=1;aspect=fixed;fillColor=none;" vertex="1" parent="1">
          <mxGeometry x="40" y="135" width="10" height="10" as="geometry" />
        </mxCell>
        <mxCell id="rtXaRLaOyk0-S2dm3rFx-50" value="" style="whiteSpace=wrap;html=1;aspect=fixed;fillColor=none;" vertex="1" parent="1">
          <mxGeometry x="40" y="145" width="10" height="10" as="geometry" />
        </mxCell>
        <mxCell id="rtXaRLaOyk0-S2dm3rFx-51" value="" style="endArrow=none;html=1;rounded=0;startSize=6;" edge="1" parent="1">
          <mxGeometry width="50" height="50" relative="1" as="geometry">
            <mxPoint x="43" y="155" as="sourcePoint" />
            <mxPoint x="53" y="155" as="targetPoint" />
          </mxGeometry>
        </mxCell>
        <mxCell id="rtXaRLaOyk0-S2dm3rFx-52" value="" style="endArrow=none;html=1;rounded=0;startSize=6;" edge="1" parent="1">
          <mxGeometry width="50" height="50" relative="1" as="geometry">
            <mxPoint x="43" y="145" as="sourcePoint" />
            <mxPoint x="53" y="145" as="targetPoint" />
          </mxGeometry>
        </mxCell>
        <mxCell id="rtXaRLaOyk0-S2dm3rFx-55" value="" style="endArrow=none;html=1;rounded=0;startSize=6;" edge="1" parent="1">
          <mxGeometry width="50" height="50" relative="1" as="geometry">
            <mxPoint x="59.920000000000016" y="128" as="sourcePoint" />
            <mxPoint x="59.920000000000016" y="138" as="targetPoint" />
          </mxGeometry>
        </mxCell>
        <mxCell id="rtXaRLaOyk0-S2dm3rFx-57" value="" style="endArrow=none;html=1;rounded=0;startSize=6;" edge="1" parent="1">
          <mxGeometry width="50" height="50" relative="1" as="geometry">
            <mxPoint x="69.92000000000002" y="128" as="sourcePoint" />
            <mxPoint x="69.92000000000002" y="138" as="targetPoint" />
          </mxGeometry>
        </mxCell>
        <mxCell id="rtXaRLaOyk0-S2dm3rFx-88" value="" style="endArrow=classic;html=1;rounded=0;startSize=6;" edge="1" parent="1">
          <mxGeometry width="50" height="50" relative="1" as="geometry">
            <mxPoint x="400" y="120" as="sourcePoint" />
            <mxPoint x="400" y="380" as="targetPoint" />
          </mxGeometry>
        </mxCell>
        <mxCell id="rtXaRLaOyk0-S2dm3rFx-89" value="" style="endArrow=classic;html=1;rounded=0;startSize=6;" edge="1" parent="1">
          <mxGeometry width="50" height="50" relative="1" as="geometry">
            <mxPoint x="359.90000000000003" y="120" as="sourcePoint" />
            <mxPoint x="359.90000000000003" y="260" as="targetPoint" />
          </mxGeometry>
        </mxCell>
        <mxCell id="rtXaRLaOyk0-S2dm3rFx-90" value="" style="whiteSpace=wrap;html=1;aspect=fixed;fillColor=none;" vertex="1" parent="1">
          <mxGeometry x="220" y="160" width="10" height="10" as="geometry" />
        </mxCell>
        <mxCell id="rtXaRLaOyk0-S2dm3rFx-91" value="" style="whiteSpace=wrap;html=1;aspect=fixed;fillColor=none;" vertex="1" parent="1">
          <mxGeometry x="210" y="160" width="10" height="10" as="geometry" />
        </mxCell>
        <mxCell id="rtXaRLaOyk0-S2dm3rFx-92" value="" style="whiteSpace=wrap;html=1;aspect=fixed;fillColor=none;" vertex="1" parent="1">
          <mxGeometry x="200" y="160" width="10" height="10" as="geometry" />
        </mxCell>
        <mxCell id="rtXaRLaOyk0-S2dm3rFx-104" style="edgeStyle=orthogonalEdgeStyle;rounded=0;orthogonalLoop=1;jettySize=auto;html=1;entryX=0;entryY=0.5;entryDx=0;entryDy=0;endArrow=classicThin;endFill=1;startSize=6;" edge="1" parent="1" source="rtXaRLaOyk0-S2dm3rFx-93" target="uMNEahNVEHUlMxa5SLzd-7">
          <mxGeometry relative="1" as="geometry" />
        </mxCell>
        <mxCell id="rtXaRLaOyk0-S2dm3rFx-93" value="" style="whiteSpace=wrap;html=1;aspect=fixed;fillColor=none;" vertex="1" parent="1">
          <mxGeometry x="220" y="150" width="10" height="10" as="geometry" />
        </mxCell>
        <mxCell id="rtXaRLaOyk0-S2dm3rFx-94" value="" style="whiteSpace=wrap;html=1;aspect=fixed;fillColor=none;" vertex="1" parent="1">
          <mxGeometry x="210" y="150" width="10" height="10" as="geometry" />
        </mxCell>
        <mxCell id="rtXaRLaOyk0-S2dm3rFx-95" value="" style="whiteSpace=wrap;html=1;aspect=fixed;fillColor=none;" vertex="1" parent="1">
          <mxGeometry x="200" y="150" width="10" height="10" as="geometry" />
        </mxCell>
        <mxCell id="rtXaRLaOyk0-S2dm3rFx-96" value="" style="whiteSpace=wrap;html=1;aspect=fixed;fillColor=none;" vertex="1" parent="1">
          <mxGeometry x="220" y="140" width="10" height="10" as="geometry" />
        </mxCell>
        <mxCell id="rtXaRLaOyk0-S2dm3rFx-97" value="" style="whiteSpace=wrap;html=1;aspect=fixed;fillColor=none;" vertex="1" parent="1">
          <mxGeometry x="210" y="140" width="10" height="10" as="geometry" />
        </mxCell>
        <mxCell id="rtXaRLaOyk0-S2dm3rFx-98" value="" style="whiteSpace=wrap;html=1;aspect=fixed;fillColor=none;" vertex="1" parent="1">
          <mxGeometry x="200" y="140" width="10" height="10" as="geometry" />
        </mxCell>
        <mxCell id="rtXaRLaOyk0-S2dm3rFx-103" value="Genre" style="html=1;verticalAlign=middle;labelBackgroundColor=none;startArrow=halfCircle;startFill=0;startSize=2;endArrow=none;rounded=0;labelPosition=right;verticalLabelPosition=middle;align=left;horizontal=0;" edge="1" parent="1">
          <mxGeometry x="-1" y="-10" relative="1" as="geometry">
            <mxPoint x="130" y="89.79999999999995" as="sourcePoint" />
            <mxPoint x="130" y="120" as="targetPoint" />
            <mxPoint x="10" y="-10" as="offset" />
          </mxGeometry>
        </mxCell>
        <mxCell id="rtXaRLaOyk0-S2dm3rFx-108" style="edgeStyle=orthogonalEdgeStyle;rounded=0;orthogonalLoop=1;jettySize=auto;html=1;entryX=0;entryY=0.5;entryDx=0;entryDy=0;endArrow=classicThin;endFill=1;startSize=6;" edge="1" parent="1" source="rtXaRLaOyk0-S2dm3rFx-105" target="rtXaRLaOyk0-S2dm3rFx-95">
          <mxGeometry relative="1" as="geometry" />
        </mxCell>
        <mxCell id="rtXaRLaOyk0-S2dm3rFx-105" value="Auswahl" style="rounded=0;whiteSpace=wrap;html=1;fontSize=12;strokeWidth=1;fillColor=none;" vertex="1" parent="1">
          <mxGeometry x="120" y="140" width="60" height="30" as="geometry" />
        </mxCell>
        <mxCell id="rtXaRLaOyk0-S2dm3rFx-107" value="Stimmung" style="html=1;verticalAlign=middle;labelBackgroundColor=none;startArrow=halfCircle;startFill=0;startSize=2;endArrow=none;rounded=0;labelPosition=right;verticalLabelPosition=middle;align=left;horizontal=0;" edge="1" parent="1">
          <mxGeometry x="-1" y="-10" relative="1" as="geometry">
            <mxPoint x="170" y="89.99999999999994" as="sourcePoint" />
            <mxPoint x="170" y="120.19999999999999" as="targetPoint" />
            <mxPoint x="10" y="-10" as="offset" />
          </mxGeometry>
        </mxCell>
        <mxCell id="rtXaRLaOyk0-S2dm3rFx-110" value="" style="endArrow=classic;html=1;rounded=0;startSize=6;" edge="1" parent="1">
          <mxGeometry width="50" height="50" relative="1" as="geometry">
            <mxPoint x="130" y="120" as="sourcePoint" />
            <mxPoint x="130" y="140" as="targetPoint" />
          </mxGeometry>
        </mxCell>
        <mxCell id="rtXaRLaOyk0-S2dm3rFx-111" value="" style="endArrow=classic;html=1;rounded=0;startSize=6;" edge="1" parent="1">
          <mxGeometry width="50" height="50" relative="1" as="geometry">
            <mxPoint x="170" y="120" as="sourcePoint" />
            <mxPoint x="170" y="140" as="targetPoint" />
          </mxGeometry>
        </mxCell>
        <mxCell id="rtXaRLaOyk0-S2dm3rFx-112" value="" style="endArrow=classic;html=1;rounded=0;startSize=6;" edge="1" parent="1">
          <mxGeometry width="50" height="50" relative="1" as="geometry">
            <mxPoint x="280" y="120" as="sourcePoint" />
            <mxPoint x="280" y="140" as="targetPoint" />
          </mxGeometry>
        </mxCell>
        <mxCell id="rtXaRLaOyk0-S2dm3rFx-113" value="" style="endArrow=classic;html=1;rounded=0;startSize=6;" edge="1" parent="1">
          <mxGeometry width="50" height="50" relative="1" as="geometry">
            <mxPoint x="319.72" y="120" as="sourcePoint" />
            <mxPoint x="319.72" y="140" as="targetPoint" />
          </mxGeometry>
        </mxCell>
        <mxCell id="rtXaRLaOyk0-S2dm3rFx-114" value="" style="endArrow=classic;html=1;rounded=0;startSize=6;entryX=0;entryY=1;entryDx=0;entryDy=0;exitX=1;exitY=0.5;exitDx=0;exitDy=0;" edge="1" parent="1" source="uMNEahNVEHUlMxa5SLzd-176" target="uMNEahNVEHUlMxa5SLzd-7">
          <mxGeometry width="50" height="50" relative="1" as="geometry">
            <mxPoint x="180" y="240" as="sourcePoint" />
            <mxPoint x="230" y="190" as="targetPoint" />
          </mxGeometry>
        </mxCell>
      </root>
    </mxGraphModel>
  </diagram>
</mxfile>
